<svg id="Layer_1" data-name="Layer 1" xmlns="http://www.w3.org/2000/svg" viewBox="0 0 751.95 168"><defs><style>.cls-1{opacity:0.16;}.cls-2{fill:#c5c5c5;}.cls-3{fill:#8c8c8c;}.cls-4{fill:#3d3d3d;}</style></defs><g id="srL7oZ.tif" class="cls-1"><path class="cls-2" d="M720.33,535.29V520.18h67v15.07H720.29Z" transform="translate(-263.66 -428.36)"/><path class="cls-3" d="M1002.43,550.55H962.31V535.44h40.08V550.6Z" transform="translate(-263.66 -428.36)"/><path class="cls-2" d="M948.67,581.25V566.16h40v15H948.62Z" transform="translate(-263.66 -428.36)"/><path class="cls-3" d="M411.37,581.12h-26.7V566h26.7Z" transform="translate(-263.66 -428.36)"/><path class="cls-3" d="M330.74,581.25H344v15.06H330.78V581.2Z" transform="translate(-263.66 -428.36)"/><path class="cls-2" d="M908.68,566.13h12.89v14.78H908.68Z" transform="translate(-263.66 -428.36)"/><path class="cls-2" d="M881.75,566h12.9V581h-12.9Z" transform="translate(-263.66 -428.36)"/><path class="cls-2" d="M801.08,580.9V566.12h13V580.9Z" transform="translate(-263.66 -428.36)"/><path class="cls-4" d="M612.93,581.13q0-7.57,0-15.15h13.16v15.1H612.89Z" transform="translate(-263.66 -428.36)"/><path class="cls-4" d="M411.37,581.12V566h13.24v15.16Z" transform="translate(-263.66 -428.36)"/><path class="cls-4" d="M451.37,596.36h-13v-15h13Z" transform="translate(-263.66 -428.36)"/><path class="cls-2" d="M330.78,581.2H317.55v-15h13.19v15.06Z" transform="translate(-263.66 -428.36)"/><path class="cls-3" d="M263.66,580.88V566.2h13.12v14.68Z" transform="translate(-263.66 -428.36)"/><path class="cls-3" d="M1002.39,550.6h13.22v15h-13.18v-15Z" transform="translate(-263.66 -428.36)"/><path class="cls-3" d="M679.72,565.76H666.85V550.83h12.87Z" transform="translate(-263.66 -428.36)"/><path class="cls-3" d="M626.13,566H613V550.93h13.16Z" transform="translate(-263.66 -428.36)"/><path class="cls-3" d="M585.68,565.74H572.83V550.85h12.85Z" transform="translate(-263.66 -428.36)"/><path class="cls-4" d="M491.84,565.87H478.65v-15.1h13.19Z" transform="translate(-263.66 -428.36)"/><path class="cls-4" d="M357.55,550.65v15H344.19v-15Z" transform="translate(-263.66 -428.36)"/><path class="cls-2" d="M612.89,581.08v15.1H599.66v-15h13.27Z" transform="translate(-263.66 -428.36)"/><path class="cls-3" d="M908.51,535.35h13.17v15.07H908.51Z" transform="translate(-263.66 -428.36)"/><path class="cls-2" d="M720.29,535.25v15H707.13v-15h13.2Z" transform="translate(-263.66 -428.36)"/><path class="cls-2" d="M437.88,550.34H425.09V535.63h12.79Z" transform="translate(-263.66 -428.36)"/><path class="cls-2" d="M357.55,550.65l-13.36,0v-15.1h13.36Z" transform="translate(-263.66 -428.36)"/><path class="cls-3" d="M263.75,550.26V535.65h13v14.61Z" transform="translate(-263.66 -428.36)"/><path class="cls-3" d="M948.62,581.2v15.07H935.44v-15h13.23Z" transform="translate(-263.66 -428.36)"/><path class="cls-4" d="M572.26,535.15H559.38V520.21h12.88Z" transform="translate(-263.66 -428.36)"/><path class="cls-2" d="M384.3,520.15v14.93H371.25V520.15Z" transform="translate(-263.66 -428.36)"/><path class="cls-2" d="M290.58,534.94V520.22h13v14.72Z" transform="translate(-263.66 -428.36)"/><path class="cls-3" d="M827.61,519.91H814.5V504.83h13.11Z" transform="translate(-263.66 -428.36)"/><path class="cls-3" d="M491.82,504.75v14.86H478.61V504.76Z" transform="translate(-263.66 -428.36)"/><path class="cls-4" d="M451.56,504.87v14.88H438.39V504.87Z" transform="translate(-263.66 -428.36)"/><path class="cls-2" d="M962.3,489.51h13.05v14.92H962.3Z" transform="translate(-263.66 -428.36)"/><path class="cls-2" d="M854.59,489.34h13.18v15H854.64v-15Z" transform="translate(-263.66 -428.36)"/><path class="cls-2" d="M491.82,504.75H478.61V489.33H492l-.05-.05Z" transform="translate(-263.66 -428.36)"/><path class="cls-3" d="M854.6,474.08q0,7.64,0,15.26l0,0H841.25V474.08Z" transform="translate(-263.66 -428.36)"/><path class="cls-2" d="M827.55,489.17H814.62V474.39h12.93Z" transform="translate(-263.66 -428.36)"/><path class="cls-3" d="M492,489.33V474.26h13.22v15H491.94Z" transform="translate(-263.66 -428.36)"/><path class="cls-4" d="M290.51,474.09h13.16v15H290.51Z" transform="translate(-263.66 -428.36)"/><path class="cls-2" d="M962.34,458.81h13v15h-13Z" transform="translate(-263.66 -428.36)"/><path class="cls-2" d="M854.6,474.08H841.25V459H854.6Z" transform="translate(-263.66 -428.36)"/><path class="cls-2" d="M451.47,459.07v14.55H438.53V459.07Z" transform="translate(-263.66 -428.36)"/><path class="cls-3" d="M357.72,473.74V459h13.11v14.72Z" transform="translate(-263.66 -428.36)"/><path class="cls-3" d="M384.76,428.36H397.6v14.72H384.76Z" transform="translate(-263.66 -428.36)"/></g></svg>